<?xml version="1.0" encoding="UTF-8"?>
<svg width="135px" height="40px" viewBox="0 0 135 40" version="1.1" xmlns="http://www.w3.org/2000/svg" xmlns:xlink="http://www.w3.org/1999/xlink">
    <title>google-play-badge</title>
    <defs>
        <path d="M1.51,25.39 L1.435,25.318 C1.145,25.01 0.973,24.533 0.973,23.913 L0.973,24.059 L0.973,1.943 C0.973,1.941 0.973,1.94 0.973,1.938 C0.973,1.94 0.973,1.942 0.973,1.943 L0.973,2.09 C0.973,1.419 1.173,0.914 1.509,0.611 L13.898,13.001 L1.51,25.39 M0.973,1.937 C0.973,1.882 0.974,1.828 0.977,1.775 C0.974,1.828 0.973,1.882 0.973,1.937" id="path-1"></path>
        <path d="M5.028,9.278 L5.028,9.278 L5.122,9.225 L10.015,6.445 C10.481,6.18 10.792,5.858 10.947,5.518 C10.792,5.858 10.482,6.18 10.015,6.445 L5.122,9.225 L5.028,9.278 M5.029,9.132 L0.898,5.001 L5.029,0.87 L10.015,3.703 C10.648,4.063 11.004,4.527 11.063,5 C11.063,5.001 11.063,5.001 11.063,5.002 C11.004,5.475 10.648,5.939 10.015,6.299 L5.029,9.132" id="path-3"></path>
        <path d="M1.393,12.861 C1.047,12.861 0.745,12.749 0.509,12.536 L0.51,12.536 C0.745,12.748 1.048,12.861 1.394,12.861 C1.424,12.861 1.454,12.861 1.485,12.859 C1.454,12.861 1.423,12.861 1.393,12.861 M1.393,12.715 C1.047,12.715 0.745,12.602 0.51,12.39 L12.898,0.001 L17.029,4.132 L2.514,12.379 C2.112,12.607 1.732,12.715 1.393,12.715" id="path-5"></path>
        <path d="M12.898,13.001 L12.898,13.001 L0.509,0.611 C0.744,0.399 1.046,0.287 1.392,0.287 C1.73,0.287 2.111,0.395 2.514,0.623 L17.029,8.87 L12.898,13.001 M17.122,8.777 L2.514,0.477 C2.112,0.249 1.73,0.141 1.392,0.141 C1.39,0.141 1.389,0.141 1.387,0.141 C1.389,0.141 1.391,0.141 1.393,0.141 C1.731,0.141 2.112,0.248 2.514,0.477 L17.122,8.777" id="path-7"></path>
        <polyline id="path-9" points="1.028 1.278 1.028 1.278 1.122 1.225 1.028 1.278"></polyline>
        <path d="M1.394,8.861 C1.048,8.861 0.745,8.748 0.51,8.536 L0.509,8.536 C0.509,8.535 0.507,8.535 0.506,8.534 L0.442,8.471 C0.44,8.469 0.438,8.466 0.436,8.464 L0.51,8.39 C0.745,8.602 1.047,8.715 1.393,8.715 C1.732,8.715 2.112,8.607 2.514,8.379 L17.029,0.132 L17.122,0.225 L17.028,0.278 L2.514,8.525 C2.148,8.733 1.8,8.841 1.485,8.859 C1.454,8.861 1.424,8.861 1.394,8.861" id="path-11"></path>
        <linearGradient x1="86.2459547%" y1="30.5607403%" x2="-50.1456311%" y2="101.911702%" id="linearGradient-13">
            <stop stop-color="#CC2D36" offset="0%"></stop>
            <stop stop-color="#9C0E4E" offset="100%"></stop>
        </linearGradient>
        <path d="M1.435,2.464 L1.435,2.464 C1.145,2.156 0.973,1.679 0.973,1.059 L0.973,0.913 C0.973,1.533 1.145,2.01 1.435,2.318 L1.51,2.39 L1.435,2.464" id="path-14"></path>
        <polyline id="path-16" points="1.436 1.464 1.435 1.464 1.51 1.39 1.436 1.464"></polyline>
        <linearGradient x1="1485.45%" y1="-963.09%" x2="-790.38%" y2="1312.74%" id="linearGradient-18">
            <stop stop-color="#DF333B" offset="0%"></stop>
            <stop stop-color="#AB0F55" offset="100%"></stop>
        </linearGradient>
        <path d="M0.122,4.225 L0.122,4.225 L0.029,4.132 L5.015,1.299 C5.648,0.939 6.004,0.475 6.063,0.002 C6.063,0.176 6.024,0.349 5.947,0.518 C5.792,0.858 5.481,1.18 5.015,1.445 L0.122,4.225" id="path-19"></path>
        <path d="M6.063,5 C6.004,4.527 5.648,4.063 5.015,3.703 L0.029,0.87 L0.122,0.777 L5.015,3.558 C5.713,3.954 6.062,4.477 6.063,5" id="path-21"></path>
        <path d="M0.973,2.09 L0.973,1.943 C0.973,1.942 0.973,1.94 0.973,1.938 C0.973,1.937 0.973,1.937 0.973,1.937 C0.973,1.882 0.974,1.828 0.977,1.775 C0.977,1.775 0.977,1.774 0.977,1.773 C0.977,1.772 0.977,1.772 0.977,1.771 C0.977,1.769 0.977,1.768 0.978,1.766 C0.978,1.765 0.978,1.765 0.978,1.765 C1.007,1.232 1.173,0.816 1.435,0.538 L1.509,0.611 C1.173,0.914 0.973,1.419 0.973,2.09" id="path-23"></path>
        <path d="M17.029,8.87 L2.514,0.623 C2.111,0.395 1.73,0.287 1.392,0.287 C1.046,0.287 0.744,0.399 0.509,0.611 L0.435,0.538 C0.458,0.514 0.482,0.49 0.507,0.468 C0.508,0.467 0.509,0.466 0.509,0.465 C0.743,0.255 1.042,0.142 1.384,0.141 C1.385,0.141 1.386,0.141 1.387,0.141 C1.389,0.141 1.39,0.141 1.392,0.141 C1.73,0.141 2.112,0.249 2.514,0.477 L17.122,8.777 L17.029,8.87" id="path-25"></path>
    </defs>
    <g id="google-play-badge" stroke="none" stroke-width="1" fill="none" fill-rule="evenodd">
        <path d="M130,40 L5,40 C2.25,40 0,37.75 0,35 L0,5 C0,2.25 2.25,0 5,0 L130,0 C132.75,0 135,2.25 135,5 L135,35 C135,37.75 132.75,40 130,40" id="Fill-4" fill="#000000"></path>
        <path d="M130,0 L5,0 C2.25,0 0,2.25 0,5 L0,35 C0,37.75 2.25,40 5,40 L130,40 C132.75,40 135,37.75 135,35 L135,5 C135,2.25 132.75,0 130,0 M130,0.8 C132.316,0.8 134.2,2.684 134.2,5 L134.2,35 C134.2,37.316 132.316,39.2 130,39.2 L5,39.2 C2.684,39.2 0.8,37.316 0.8,35 L0.8,5 C0.8,2.684 2.684,0.8 5,0.8 L130,0.8" id="Fill-5" fill="#A6A6A6"></path>
        <path d="M106.936,30 L108.802,30 L108.802,17.499 L106.936,17.499 L106.936,30 Z M123.743,22.002 L121.604,27.422 L121.54,27.422 L119.32,22.002 L117.31,22.002 L120.639,29.577 L118.741,33.791 L120.688,33.791 L125.818,22.002 L123.743,22.002 Z M113.161,28.58 C112.549,28.58 111.697,28.275 111.697,27.519 C111.697,26.554 112.759,26.184 113.675,26.184 C114.496,26.184 114.881,26.361 115.38,26.602 C115.235,27.76 114.238,28.58 113.161,28.58 Z M113.386,21.729 C112.035,21.729 110.636,22.324 110.057,23.643 L111.713,24.334 C112.067,23.643 112.726,23.417 113.418,23.417 C114.383,23.417 115.364,23.996 115.38,25.026 L115.38,25.154 C115.042,24.961 114.319,24.672 113.434,24.672 C111.649,24.672 109.831,25.653 109.831,27.486 C109.831,29.159 111.295,30.237 112.935,30.237 C114.19,30.237 114.881,29.674 115.316,29.014 L115.38,29.014 L115.38,29.979 L117.181,29.979 L117.181,25.187 C117.181,22.967 115.525,21.729 113.386,21.729 Z M101.854,23.524 L99.2,23.524 L99.2,19.239 L101.854,19.239 C103.249,19.239 104.041,20.394 104.041,21.381 C104.041,22.35 103.249,23.524 101.854,23.524 Z M101.806,17.499 L97.335,17.499 L97.335,30 L99.2,30 L99.2,25.264 L101.806,25.264 C103.874,25.264 105.907,23.766 105.907,21.381 C105.907,18.996 103.874,17.499 101.806,17.499 Z M77.425,28.582 C76.136,28.582 75.057,27.503 75.057,26.021 C75.057,24.523 76.136,23.427 77.425,23.427 C78.698,23.427 79.696,24.523 79.696,26.021 C79.696,27.503 78.698,28.582 77.425,28.582 Z M79.567,22.702 L79.503,22.702 C79.084,22.203 78.279,21.752 77.264,21.752 C75.137,21.752 73.188,23.62 73.188,26.021 C73.188,28.405 75.137,30.258 77.264,30.258 C78.279,30.258 79.084,29.807 79.503,29.291 L79.567,29.291 L79.567,29.903 C79.567,31.531 78.698,32.401 77.296,32.401 C76.152,32.401 75.443,31.579 75.153,30.886 L73.526,31.563 C73.993,32.691 75.234,34.076 77.296,34.076 C79.487,34.076 81.34,32.787 81.34,29.646 L81.34,22.009 L79.567,22.009 L79.567,22.702 Z M82.629,30 L84.498,30 L84.498,17.498 L82.629,17.498 L82.629,30 Z M87.252,25.876 C87.204,24.233 88.525,23.395 89.475,23.395 C90.217,23.395 90.845,23.765 91.054,24.297 L87.252,25.876 Z M93.052,24.458 C92.698,23.508 91.618,21.752 89.411,21.752 C87.22,21.752 85.4,23.475 85.4,26.005 C85.4,28.389 87.204,30.258 89.62,30.258 C91.57,30.258 92.698,29.066 93.165,28.373 L91.715,27.406 C91.232,28.115 90.571,28.582 89.62,28.582 C88.67,28.582 87.993,28.147 87.558,27.294 L93.245,24.942 L93.052,24.458 Z M47.744,23.057 L47.744,24.861 L52.061,24.861 C51.932,25.876 51.594,26.617 51.079,27.133 C50.45,27.761 49.467,28.453 47.744,28.453 C45.086,28.453 43.007,26.311 43.007,23.653 C43.007,20.994 45.086,18.852 47.744,18.852 C49.178,18.852 50.225,19.416 50.998,20.141 L52.271,18.868 C51.191,17.837 49.758,17.047 47.744,17.047 C44.103,17.047 41.042,20.012 41.042,23.653 C41.042,27.294 44.103,30.258 47.744,30.258 C49.709,30.258 51.191,29.614 52.351,28.405 C53.543,27.213 53.914,25.538 53.914,24.184 C53.914,23.765 53.882,23.379 53.817,23.057 L47.744,23.057 Z M58.823,28.582 C57.534,28.582 56.422,27.519 56.422,26.005 C56.422,24.474 57.534,23.427 58.823,23.427 C60.111,23.427 61.223,24.474 61.223,26.005 C61.223,27.519 60.111,28.582 58.823,28.582 Z M58.823,21.752 C56.47,21.752 54.553,23.54 54.553,26.005 C54.553,28.453 56.47,30.258 58.823,30.258 C61.175,30.258 63.092,28.453 63.092,26.005 C63.092,23.54 61.175,21.752 58.823,21.752 Z M68.136,28.582 C66.847,28.582 65.735,27.519 65.735,26.005 C65.735,24.474 66.847,23.427 68.136,23.427 C69.425,23.427 70.536,24.474 70.536,26.005 C70.536,27.519 69.425,28.582 68.136,28.582 Z M68.136,21.752 C65.784,21.752 63.867,23.54 63.867,26.005 C63.867,28.453 65.784,30.258 68.136,30.258 C70.488,30.258 72.405,28.453 72.405,26.005 C72.405,23.54 70.488,21.752 68.136,21.752 L68.136,21.752 Z" id="Fill-6" fill="#FFFFFF"></path>
        <g id="Group-9" transform="translate(9.000000, 7.000000)">
            <mask id="mask-2" fill="white">
                <use xlink:href="#path-1"></use>
            </mask>
            <g id="Clip-8"></g>
            <path d="M1.51,25.39 L1.435,25.318 C1.145,25.01 0.973,24.533 0.973,23.913 L0.973,24.059 L0.973,1.943 C0.973,1.941 0.973,1.94 0.973,1.938 C0.973,1.94 0.973,1.942 0.973,1.943 L0.973,2.09 C0.973,1.419 1.173,0.914 1.509,0.611 L13.898,13.001 L1.51,25.39 M0.973,1.937 C0.973,1.882 0.974,1.828 0.977,1.775 C0.974,1.828 0.973,1.882 0.973,1.937" id="Fill-7" fill="#00DEFF" mask="url(#mask-2)"></path>
        </g>
        <g id="Group-12" transform="translate(22.000000, 15.000000)">
            <mask id="mask-4" fill="white">
                <use xlink:href="#path-3"></use>
            </mask>
            <g id="Clip-11"></g>
            <path d="M5.028,9.278 L5.028,9.278 L5.122,9.225 L10.015,6.445 C10.481,6.18 10.792,5.858 10.947,5.518 C10.792,5.858 10.482,6.18 10.015,6.445 L5.122,9.225 L5.028,9.278 M5.029,9.132 L0.898,5.001 L5.029,0.87 L10.015,3.703 C10.648,4.063 11.004,4.527 11.063,5 C11.063,5.001 11.063,5.001 11.063,5.002 C11.004,5.475 10.648,5.939 10.015,6.299 L5.029,9.132" id="Fill-10" fill="#FFD300" mask="url(#mask-4)"></path>
        </g>
        <g id="Group-15" transform="translate(10.000000, 20.000000)">
            <mask id="mask-6" fill="white">
                <use xlink:href="#path-5"></use>
            </mask>
            <g id="Clip-14"></g>
            <path d="M1.393,12.861 C1.047,12.861 0.745,12.749 0.509,12.536 L0.51,12.536 C0.745,12.748 1.048,12.861 1.394,12.861 C1.424,12.861 1.454,12.861 1.485,12.859 C1.454,12.861 1.423,12.861 1.393,12.861 M1.393,12.715 C1.047,12.715 0.745,12.602 0.51,12.39 L12.898,0.001 L17.029,4.132 L2.514,12.379 C2.112,12.607 1.732,12.715 1.393,12.715" id="Fill-13" fill="#F73548" mask="url(#mask-6)"></path>
        </g>
        <g id="Group-18" transform="translate(10.000000, 7.000000)">
            <mask id="mask-8" fill="white">
                <use xlink:href="#path-7"></use>
            </mask>
            <use id="Clip-17" fill="#00F076" xlink:href="#path-7"></use>
            <path d="M12.898,13.001 L12.898,13.001 L0.509,0.611 C0.744,0.399 1.046,0.287 1.392,0.287 C1.73,0.287 2.111,0.395 2.514,0.623 L17.029,8.87 L12.898,13.001 M17.122,8.777 L2.514,0.477 C2.112,0.249 1.73,0.141 1.392,0.141 C1.39,0.141 1.389,0.141 1.387,0.141 C1.389,0.141 1.391,0.141 1.393,0.141 C1.731,0.141 2.112,0.248 2.514,0.477 L17.122,8.777" id="Fill-16" mask="url(#mask-8)"></path>
        </g>
        <path d="M11.485,32.859 C11.8,32.841 12.148,32.733 12.514,32.525 L27.028,24.278 L12.514,32.525 C12.148,32.733 11.8,32.841 11.485,32.859" id="Fill-19" fill="#000000"></path>
        <g id="Group-22" transform="translate(26.000000, 23.000000)">
            <mask id="mask-10" fill="white">
                <use xlink:href="#path-9"></use>
            </mask>
            <g id="Clip-21"></g>
            <polyline id="Fill-20" mask="url(#mask-10)" points="1.028 1.278 1.028 1.278 1.122 1.225 1.028 1.278"></polyline>
        </g>
        <g id="Group-25" transform="translate(10.000000, 24.000000)">
            <mask id="mask-12" fill="white">
                <use xlink:href="#path-11"></use>
            </mask>
            <g id="Clip-24"></g>
            <path d="M1.394,8.861 C1.048,8.861 0.745,8.748 0.51,8.536 L0.509,8.536 C0.509,8.535 0.507,8.535 0.506,8.534 L0.442,8.471 C0.44,8.469 0.438,8.466 0.436,8.464 L0.51,8.39 C0.745,8.602 1.047,8.715 1.393,8.715 C1.732,8.715 2.112,8.607 2.514,8.379 L17.029,0.132 L17.122,0.225 L17.028,0.278 L2.514,8.525 C2.148,8.733 1.8,8.841 1.485,8.859 C1.454,8.861 1.424,8.861 1.394,8.861" id="Fill-23" fill="url(#linearGradient-13)" mask="url(#mask-12)"></path>
        </g>
        <path d="M10.435,32.464 C10.145,32.157 9.973,31.679 9.973,31.06 L9.973,31.059 C9.973,31.679 10.145,32.156 10.435,32.464 L10.435,32.464" id="Fill-26" fill="#000000"></path>
        <g id="Group-29" transform="translate(9.000000, 30.000000)">
            <mask id="mask-15" fill="white">
                <use xlink:href="#path-14"></use>
            </mask>
            <g id="Clip-28"></g>
            <path d="M1.435,2.464 L1.435,2.464 C1.145,2.156 0.973,1.679 0.973,1.059 L0.973,0.913 C0.973,1.533 1.145,2.01 1.435,2.318 L1.51,2.39 L1.435,2.464" id="Fill-27" mask="url(#mask-15)"></path>
        </g>
        <g id="Group-32" transform="translate(9.000000, 31.000000)">
            <mask id="mask-17" fill="white">
                <use xlink:href="#path-16"></use>
            </mask>
            <g id="Clip-31"></g>
            <polyline id="Fill-30" fill="url(#linearGradient-18)" mask="url(#mask-17)" points="1.436 1.464 1.435 1.464 1.51 1.39 1.436 1.464"></polyline>
        </g>
        <path d="M32.947,20.518 C33.024,20.349 33.063,20.176 33.063,20.002 C33.063,20.002 33.063,20.002 33.063,20.001 C33.063,20.175 33.024,20.349 32.947,20.518" id="Fill-33" fill="#000000"></path>
        <g id="Group-36" transform="translate(27.000000, 20.000000)">
            <mask id="mask-20" fill="white">
                <use xlink:href="#path-19"></use>
            </mask>
            <g id="Clip-35"></g>
            <path d="M0.122,4.225 L0.122,4.225 L0.029,4.132 L5.015,1.299 C5.648,0.939 6.004,0.475 6.063,0.002 C6.063,0.176 6.024,0.349 5.947,0.518 C5.792,0.858 5.481,1.18 5.015,1.445 L0.122,4.225" id="Fill-34" mask="url(#mask-20)"></path>
        </g>
        <path d="M33.0630021,20.001 L33.0630021,20 C33.062,19.477 32.713,18.954 32.015,18.558 L27.122,15.777 L32.015,18.557 C32.714,18.954 33.064,19.478 33.0630021,20.001" id="Fill-37" fill="#404040"></path>
        <g id="Group-40" transform="translate(27.000000, 15.000000)">
            <mask id="mask-22" fill="white">
                <use xlink:href="#path-21"></use>
            </mask>
            <g id="Clip-39"></g>
            <path d="M6.063,5 C6.004,4.527 5.648,4.063 5.015,3.703 L0.029,0.87 L0.122,0.777 L5.015,3.558 C5.713,3.954 6.062,4.477 6.063,5" id="Fill-38" mask="url(#mask-22)"></path>
        </g>
        <path d="M9.978,8.765 C10.035,7.738 10.594,7.144 11.384,7.141 C11.042,7.142 10.743,7.255 10.509,7.465 L10.507,7.468 C10.482,7.49 10.458,7.514 10.435,7.538 C10.173,7.816 10.007,8.232 9.978,8.765" id="Fill-41" fill="#404040"></path>
        <g id="Group-44" transform="translate(9.000000, 7.000000)">
            <mask id="mask-24" fill="white">
                <use xlink:href="#path-23"></use>
            </mask>
            <g id="Clip-43"></g>
            <path d="M0.973,2.09 L0.973,1.943 C0.973,1.942 0.973,1.94 0.973,1.938 C0.973,1.937 0.973,1.937 0.973,1.937 C0.973,1.882 0.974,1.828 0.977,1.775 C0.977,1.775 0.977,1.774 0.977,1.773 C0.977,1.772 0.977,1.772 0.977,1.771 C0.977,1.769 0.977,1.768 0.978,1.766 C0.978,1.765 0.978,1.765 0.978,1.765 C1.007,1.232 1.173,0.816 1.435,0.538 L1.509,0.611 C1.173,0.914 0.973,1.419 0.973,2.09" id="Fill-42" mask="url(#mask-24)"></path>
        </g>
        <path d="M11.384,7.141 C11.385,7.141 11.386,7.141 11.387,7.141 C11.386,7.141 11.385,7.141 11.384,7.141" id="Fill-45" fill="#404040"></path>
        <g id="Group-48" transform="translate(10.000000, 7.000000)">
            <mask id="mask-26" fill="white">
                <use xlink:href="#path-25"></use>
            </mask>
            <g id="Clip-47"></g>
            <path d="M17.029,8.87 L2.514,0.623 C2.111,0.395 1.73,0.287 1.392,0.287 C1.046,0.287 0.744,0.399 0.509,0.611 L0.435,0.538 C0.458,0.514 0.482,0.49 0.507,0.468 C0.508,0.467 0.509,0.466 0.509,0.465 C0.743,0.255 1.042,0.142 1.384,0.141 C1.385,0.141 1.386,0.141 1.387,0.141 C1.389,0.141 1.39,0.141 1.392,0.141 C1.73,0.141 2.112,0.249 2.514,0.477 L17.122,8.777 L17.029,8.87" id="Fill-46" mask="url(#mask-26)"></path>
        </g>
        <path d="M42.051,12.263 L43.115,12.263 C43.808,12.263 44.356,12.065 44.762,11.667 C45.167,11.271 45.369,10.715 45.369,10 C45.369,9.291 45.167,8.736 44.762,8.336 C44.356,7.938 43.808,7.737 43.115,7.737 L42.051,7.737 L42.051,12.263 Z M41.28,13 L41.28,7 L43.115,7 C44.037,7 44.774,7.278 45.328,7.834 C45.881,8.39 46.157,9.111 46.157,10 C46.157,10.888 45.881,11.61 45.328,12.166 C44.774,12.722 44.037,13 43.115,13 L41.28,13 L41.28,13 Z" id="Fill-49" fill="#FFFFFF"></path>
        <path d="M42.051,12.263 L42.051,12.3630036 L43.115,12.3630036 C43.826,12.364 44.406,12.157 44.832,11.739 C45.26,11.321 45.47,10.733 45.4690036,10 C45.47,9.272 45.26,8.686 44.832,8.265 C44.406,7.845 43.826,7.637 43.115,7.637 L41.951,7.637 L41.951,12.3630036 L42.051,12.3630036 L42.051,12.263 L42.151,12.263 L42.151,7.837 L43.115,7.837 C43.789,7.838 44.307,8.03 44.692,8.408 C45.074,8.786 45.268,9.309 45.269,10 C45.268,10.697 45.074,11.221 44.692,11.596 C44.307,11.972 43.789,12.162 43.115,12.163 L42.051,12.163 L42.051,12.263 L42.151,12.263 L42.051,12.263 Z M41.28,13 L41.38,13 L41.38,7.1 L43.115,7.1 C44.018,7.101 44.723,7.369 45.257,7.904 C45.79,8.441 46.056,9.132 46.057,10 C46.056,10.868 45.79,11.559 45.257,12.096 C44.723,12.631 44.018,12.899 43.115,12.8999974 L41.28,12.8999974 L41.28,13 L41.38,13 L41.28,13 L41.28,13.1000026 L43.115,13.1000026 C44.057,13.101 44.826,12.814 45.399,12.237 C45.972,11.662 46.258,10.908 46.2570026,10 C46.258,9.091 45.972,8.338 45.399,7.764 C44.826,7.186 44.057,6.899 43.115,6.8999974 L41.18,6.8999974 L41.18,13.1000026 L41.28,13.1000026 L41.28,13 L41.28,13 Z" id="Fill-50" fill="#FFFFFF"></path>
        <polygon id="Fill-51" fill="#FFFFFF" points="47.239 13 48.01 13 48.01 7 47.239 7"></polygon>
        <polyline id="Fill-52" fill="#FFFFFF" points="47.239 13 47.339 13 47.339 7.1 47.91 7.1 47.91 12.9 47.239 12.9 47.239 13 47.339 13 47.239 13 47.239 13.1 48.11 13.1 48.11 6.9 47.139 6.9 47.139 13.1 47.239 13.1 47.239 13"></polyline>
        <path d="M51.076,13.134 C50.641,13.134 50.215,12.992 49.799,12.707 C49.382,12.422 49.109,12.022 48.981,11.508 L49.686,11.224 C49.77,11.553 49.94,11.831 50.2,12.057 C50.461,12.283 50.752,12.396 51.076,12.396 C51.411,12.396 51.698,12.309 51.936,12.133 C52.173,11.957 52.291,11.718 52.291,11.416 C52.291,11.081 52.173,10.823 51.936,10.641 C51.698,10.459 51.322,10.291 50.809,10.134 C50.277,9.967 49.875,9.75 49.602,9.484 C49.328,9.219 49.19,8.88 49.19,8.466 C49.19,8.036 49.361,7.662 49.702,7.344 C50.043,7.025 50.487,6.866 51.034,6.866 C51.543,6.866 51.956,6.993 52.274,7.247 C52.593,7.502 52.8,7.779 52.895,8.081 L52.191,8.374 C52.141,8.185 52.017,8.008 51.818,7.846 C51.62,7.685 51.364,7.604 51.051,7.604 C50.755,7.604 50.502,7.686 50.293,7.851 C50.083,8.016 49.979,8.221 49.979,8.466 C49.979,8.69 50.075,8.878 50.268,9.032 C50.461,9.186 50.744,9.324 51.118,9.447 C51.414,9.542 51.661,9.634 51.86,9.724 C52.059,9.813 52.26,9.932 52.463,10.08 C52.667,10.228 52.82,10.412 52.924,10.633 C53.027,10.854 53.079,11.109 53.079,11.399 C53.079,11.69 53.02,11.95 52.899,12.179 C52.779,12.408 52.619,12.589 52.421,12.724 C52.223,12.857 52.01,12.959 51.78,13.029 C51.551,13.099 51.316,13.134 51.076,13.134" id="Fill-53" fill="#FFFFFF"></path>
        <path d="M51.076,13.134 L51.076,13.034 C50.663,13.034 50.258,12.9 49.855,12.625 C49.458,12.352 49.202,11.978 49.078,11.484 L48.981,11.508 L49.019,11.601 L49.723,11.316 L49.686,11.224 L49.589,11.248 C49.677,11.597 49.86,11.894 50.134,12.133 C50.41,12.372 50.728,12.497 51.076,12.497 C51.428,12.497 51.739,12.403 51.995,12.213 C52.256,12.022 52.393,11.744 52.391,11.416 C52.393,11.058 52.259,10.761 51.996,10.562 C51.742,10.368 51.358,10.197 50.838,10.038 L50.839,10.038 C50.317,9.875 49.929,9.663 49.671,9.413 C49.417,9.165 49.292,8.858 49.29,8.466 C49.292,8.063 49.447,7.721 49.77,7.417 C50.092,7.118 50.506,6.966 51.034,6.966 C51.527,6.966 51.914,7.088 52.212,7.325 C52.519,7.571 52.712,7.833 52.799,8.111 L52.895,8.081 L52.856,7.989 L52.153,8.282 L52.191,8.374 L52.288,8.348 C52.231,8.134 52.091,7.94 51.882,7.769 C51.663,7.59 51.381,7.503 51.051,7.504 C50.737,7.503 50.458,7.592 50.231,7.772 C50.002,7.95 49.877,8.192 49.879,8.466 C49.877,8.72 49.994,8.944 50.205,9.11 L50.205,9.111 C50.413,9.275 50.706,9.417 51.087,9.542 L51.088,9.542 C51.381,9.636 51.625,9.727 51.819,9.815 C52.01,9.9 52.206,10.016 52.404,10.16 L52.404,10.161 C52.596,10.299 52.737,10.47 52.833,10.675 C52.93,10.881 52.979,11.121 52.979,11.399 C52.979,11.676 52.923,11.919 52.811,12.132 C52.697,12.349 52.549,12.516 52.365,12.641 C52.175,12.769 51.971,12.867 51.751,12.934 C51.531,13.001 51.307,13.034 51.076,13.034 L51.076,13.234 C51.326,13.234 51.571,13.198 51.809,13.125 C52.048,13.052 52.271,12.946 52.477,12.806 C52.689,12.663 52.861,12.468 52.988,12.225 C53.116,11.981 53.179,11.704 53.179,11.399 C53.179,11.097 53.125,10.826 53.014,10.59 C52.904,10.355 52.738,10.156 52.522,9.999 C52.314,9.847 52.107,9.725 51.901,9.632 L51.9,9.632 L51.902,9.632 C51.697,9.54 51.447,9.448 51.149,9.352 C50.782,9.232 50.509,9.096 50.33,8.954 C50.157,8.813 50.08,8.66 50.078,8.466 C50.08,8.25 50.165,8.081 50.355,7.929 C50.546,7.779 50.773,7.704 51.051,7.704 C51.348,7.704 51.577,7.779 51.755,7.924 L51.756,7.925 L51.755,7.924 C51.942,8.077 52.051,8.235 52.095,8.4 L52.124,8.51 L52.933,8.173 L53.017,8.138 L52.99,8.051 C52.888,7.726 52.666,7.432 52.337,7.169 C51.998,6.898 51.559,6.765 51.034,6.7659944 C50.468,6.765 49.994,6.933 49.634,7.271 C49.276,7.603 49.089,8.009 49.09,8.466 C49.089,8.902 49.239,9.273 49.532,9.556 C49.821,9.837 50.238,10.059 50.779,10.229 C51.287,10.384 51.654,10.551 51.875,10.721 C52.087,10.885 52.189,11.104 52.191,11.416 C52.189,11.692 52.09,11.892 51.876,12.053 C51.657,12.214 51.394,12.296 51.076,12.297 C50.776,12.296 50.512,12.194 50.266,11.982 C50.021,11.768 49.862,11.51 49.782,11.199 L49.754,11.088 L48.944,11.416 L48.863,11.448 L48.884,11.532 C49.017,12.067 49.306,12.492 49.742,12.79 C50.171,13.083 50.618,13.234 51.076,13.234 L51.076,13.134" id="Fill-54" fill="#FFFFFF"></path>
        <path d="M54.956,9.832 L56.247,9.832 C56.571,9.832 56.831,9.724 57.026,9.506 C57.222,9.288 57.319,9.048 57.319,8.785 C57.319,8.522 57.222,8.282 57.026,8.065 C56.831,7.846 56.571,7.737 56.247,7.737 L54.956,7.737 L54.956,9.832 Z M54.956,13 L54.186,13 L54.186,7 L56.23,7 C56.738,7 57.179,7.169 57.55,7.507 C57.922,7.845 58.107,8.271 58.107,8.785 C58.107,9.299 57.922,9.725 57.55,10.063 C57.179,10.401 56.738,10.57 56.23,10.57 L54.956,10.57 L54.956,13 L54.956,13 Z" id="Fill-55" fill="#FFFFFF"></path>
        <path d="M54.956,9.832 L54.956,9.93200615 L56.247,9.93200615 C56.593,9.933 56.887,9.812 57.101,9.573 C57.31,9.34 57.42,9.073 57.4190068,8.785 C57.42,8.497 57.31,8.23 57.101,7.998 C56.888,7.758 56.593,7.636 56.247,7.6369939 L54.856,7.6369939 L54.856,9.93200615 L54.956,9.93200615 L54.956,9.832 L55.056,9.832 L55.056,7.837 L56.247,7.837 C56.549,7.839 56.774,7.935 56.952,8.131 C57.134,8.335 57.219,8.548 57.219,8.785 C57.219,9.022 57.134,9.235 56.952,9.439 C56.775,9.635 56.549,9.731 56.247,9.732 L54.956,9.732 L54.956,9.832 L55.056,9.832 L54.956,9.832 Z M54.956,13 L54.956,12.8999959 L54.285,12.8999959 L54.285,7.1 L56.23,7.1 C56.716,7.101 57.128,7.259 57.482,7.581 C57.835,7.903 58.006,8.295 58.007,8.785 C58.006,9.275 57.835,9.667 57.483,9.989 L57.482,9.989 C57.128,10.311 56.716,10.469 56.23,10.47 L54.856,10.47 L54.856,13 L54.956,13 L54.956,12.8999959 L54.956,13 L55.056,13 L55.056,10.67 L56.23,10.67 C56.76,10.671 57.23,10.491 57.617,10.136 C58.009,9.782 58.209,9.323 58.2070149,8.785 C58.209,8.247 58.009,7.787 57.617,7.433 C57.23,7.079 56.76,6.899 56.23,6.89999586 L54.086,6.89999586 L54.086,13.1 L55.056,13.1 L55.056,13 L54.956,13 L54.956,13 Z" id="Fill-56" fill="#FFFFFF"></path>
        <path d="M60.155,11.722 C60.6,12.172 61.143,12.396 61.785,12.396 C62.428,12.396 62.972,12.172 63.415,11.722 C63.859,11.272 64.082,10.698 64.082,10 C64.082,9.302 63.859,8.728 63.415,8.278 C62.972,7.828 62.428,7.604 61.785,7.604 C61.143,7.604 60.6,7.828 60.155,8.278 C59.712,8.728 59.489,9.302 59.489,10 C59.489,10.698 59.712,11.272 60.155,11.722 Z M63.985,12.225 C63.396,12.831 62.662,13.134 61.785,13.134 C60.908,13.134 60.175,12.831 59.586,12.225 C58.996,11.619 58.702,10.877 58.702,10 C58.702,9.123 58.996,8.381 59.586,7.775 C60.175,7.169 60.908,6.866 61.785,6.866 C62.657,6.866 63.389,7.17 63.981,7.779 C64.573,8.388 64.869,9.128 64.869,10 C64.869,10.877 64.574,11.619 63.985,12.225 L63.985,12.225 Z" id="Fill-57" fill="#FFFFFF"></path>
        <path d="M60.155,11.722 L60.084,11.792 C60.545,12.26 61.119,12.498 61.785,12.4970031 C62.451,12.498 63.027,12.26 63.486,11.792 C63.95,11.325 64.183,10.719 64.1820032,10 C64.183,9.281 63.95,8.676 63.486,8.208 L63.485,8.206 L63.486,8.208 C63.027,7.74 62.451,7.503 61.785,7.50399685 C61.119,7.503 60.545,7.74 60.084,8.208 L60.081,8.211 L60.084,8.208 C59.622,8.676 59.388,9.281 59.3889968,10 C59.388,10.719 59.622,11.325 60.084,11.792 L60.227,11.652 C59.802,11.221 59.59,10.677 59.589,10 C59.59,9.323 59.802,8.779 60.227,8.348 L60.226,8.348 C60.654,7.916 61.166,7.705 61.785,7.704 C62.404,7.705 62.917,7.916 63.344,8.348 C63.769,8.78 63.981,9.323 63.982,10 C63.981,10.677 63.769,11.22 63.344,11.652 C62.917,12.084 62.404,12.296 61.785,12.297 C61.166,12.295 60.654,12.084 60.226,11.652 L60.155,11.722 Z M63.985,12.225 L63.914,12.155 C63.341,12.743 62.639,13.033 61.785,13.034 C60.931,13.033 60.23,12.743 59.658,12.155 C59.085,11.566 58.803,10.855 58.802,10 C58.803,9.145 59.085,8.434 59.658,7.845 C60.23,7.257 60.931,6.967 61.785,6.966 C62.634,6.967 63.334,7.259 63.91,7.849 C64.484,8.441 64.768,9.151 64.769,10 C64.768,10.855 64.485,11.566 63.914,12.155 L63.985,12.225 L64.057,12.294 C64.663,11.672 64.97,10.899 64.9690024,10 C64.97,9.106 64.662,8.335 64.053,7.71 C63.444,7.082 62.68,6.765 61.785,6.76599763 C60.885,6.765 60.12,7.081 59.514,7.706 C58.907,8.329 58.601,9.101 58.6019976,10 C58.601,10.899 58.907,11.672 59.514,12.294 L59.517,12.297 L59.514,12.294 C60.12,12.92 60.885,13.235 61.785,13.2340024 C62.685,13.235 63.45,12.92 64.057,12.294 L63.985,12.225 L63.985,12.225 Z" id="Fill-58" fill="#FFFFFF"></path>
        <polyline id="Fill-59" fill="#FFFFFF" points="65.951 13 65.951 7 66.89 7 69.806 11.667 69.839 11.667 69.806 10.511 69.806 7 70.577 7 70.577 13 69.772 13 66.722 8.106 66.688 8.106 66.722 9.263 66.722 13 65.951 13"></polyline>
        <polyline id="Fill-60" fill="#FFFFFF" points="65.951 13 66.051 13 66.051 7.1 66.834 7.1 69.75 11.768 69.942 11.768 69.906 10.51 69.906 7.1 70.477 7.1 70.477 12.9 69.828 12.9 66.777 8.006 66.586 8.006 66.622 9.264 66.622 12.9 65.951 12.9 65.951 13 66.051 13 65.951 13 65.951 13.1 66.822 13.1 66.822 9.261 66.788 8.104 66.688 8.106 66.688 8.206 66.722 8.206 66.722 8.106 66.637 8.159 69.717 13.1 70.677 13.1 70.677 6.9 69.706 6.9 69.706 10.512 69.739 11.67 69.839 11.667 69.839 11.568 69.806 11.568 69.806 11.667 69.891 11.615 66.945 6.9 65.851 6.9 65.851 13.1 65.951 13.1 65.951 13"></polyline>
        <polygon id="Fill-61" fill="#FFFFFF" points="71.951 13 72.722 13 72.722 7 71.951 7"></polygon>
        <polyline id="Fill-62" fill="#FFFFFF" points="71.951 13 72.051 13 72.051 7.1 72.622 7.1 72.622 12.9 71.951 12.9 71.951 13 72.051 13 71.951 13 71.951 13.1 72.822 13.1 72.822 6.9 71.851 6.9 71.851 13.1 71.951 13.1 71.951 13"></polyline>
        <path d="M74.866,12.263 L76.417,12.263 C76.713,12.263 76.953,12.159 77.138,11.952 C77.322,11.746 77.414,11.52 77.414,11.273 C77.414,11.028 77.319,10.803 77.129,10.599 C76.939,10.396 76.69,10.293 76.383,10.293 L74.866,10.293 L74.866,12.263 Z M74.866,9.572 L76.266,9.572 C76.557,9.572 76.79,9.477 76.966,9.283 C77.142,9.091 77.229,8.88 77.229,8.651 C77.229,8.422 77.145,8.212 76.974,8.022 C76.804,7.833 76.579,7.737 76.3,7.737 L74.866,7.737 L74.866,9.572 Z M74.096,13 L74.096,7 L76.266,7 C76.735,7 77.142,7.155 77.485,7.465 C77.829,7.775 78.001,8.165 78.001,8.634 C78.001,8.919 77.927,9.17 77.778,9.388 C77.631,9.606 77.434,9.771 77.188,9.883 L77.188,9.916 C77.483,10.017 77.727,10.19 77.917,10.436 C78.106,10.682 78.202,10.967 78.202,11.291 C78.202,11.782 78.021,12.19 77.661,12.514 C77.301,12.838 76.875,13 76.383,13 L74.096,13 L74.096,13 Z" id="Fill-63" fill="#FFFFFF"></path>
        <path d="M74.866,12.263 L74.866,12.3630064 L76.417,12.3630064 C76.736,12.364 77.011,12.247 77.212,12.019 C77.41,11.799 77.515,11.545 77.5140071,11.273 C77.515,11.001 77.406,10.749 77.202,10.531 C76.995,10.306 76.712,10.192 76.383,10.1929935 L74.766,10.1929935 L74.766,12.3630064 L74.866,12.3630064 L74.866,12.263 L74.966,12.263 L74.966,10.393 L76.383,10.393 C76.669,10.394 76.884,10.485 77.056,10.667 C77.232,10.858 77.313,11.054 77.314,11.273 C77.313,11.494 77.234,11.694 77.063,11.885 L77.063,11.886 C76.896,12.072 76.69,12.161 76.417,12.163 L74.866,12.163 L74.866,12.263 L74.966,12.263 L74.866,12.263 Z M74.866,9.572 L74.866,9.672 L76.266,9.672 C76.578,9.674 76.846,9.566 77.04,9.351 C77.229,9.145 77.33,8.906 77.3290077,8.651 C77.33,8.397 77.233,8.159 77.048,7.956 L77.048,7.956 C76.861,7.744 76.601,7.636 76.3,7.63699312 L74.766,7.63699312 L74.766,9.672 L74.866,9.672 L74.866,9.572 L74.966,9.572 L74.966,7.837 L76.3,7.837 C76.557,7.839 76.747,7.921 76.899,8.089 C77.056,8.265 77.129,8.447 77.13,8.651 C77.129,8.854 77.054,9.037 76.892,9.216 C76.734,9.388 76.535,9.471 76.266,9.472 L74.866,9.472 L74.866,9.572 L74.966,9.572 L74.866,9.572 Z M74.096,13 L74.196,13 L74.196,7.1 L76.266,7.1 C76.713,7.101 77.091,7.245 77.418,7.539 C77.743,7.834 77.9,8.19 77.901,8.634 C77.901,8.902 77.832,9.131 77.696,9.332 C77.558,9.535 77.377,9.687 77.146,9.792 L77.088,9.818 L77.088,9.988 L77.155,10.011 C77.434,10.106 77.659,10.266 77.838,10.497 L77.838,10.496 C78.014,10.726 78.102,10.986 78.102,11.291 C78.101,11.758 77.935,12.132 77.594,12.439 C77.25,12.748 76.853,12.899 76.383,12.8999955 L74.096,12.8999955 L74.096,13 L74.196,13 L74.096,13 L74.096,13.1000043 L76.383,13.1000043 C76.897,13.101 77.351,12.928 77.728,12.588 C78.108,12.248 78.303,11.807 78.3020071,11.291 C78.303,10.947 78.199,10.637 77.996,10.375 C77.795,10.114 77.533,9.927 77.22,9.821 L77.188,9.916 L77.288,9.916 L77.288,9.883 L77.188,9.883 L77.229,9.974 C77.49,9.855 77.704,9.678 77.861,9.444 C78.021,9.21 78.101,8.936 78.101,8.634 C78.102,8.141 77.916,7.717 77.552,7.391 L77.55,7.389 L77.552,7.39 C77.192,7.065 76.757,6.899 76.266,6.89999551 L73.996,6.89999551 L73.996,13.1000043 L74.096,13.1000043 L74.096,13 L74.096,13 Z" id="Fill-64" fill="#FFFFFF"></path>
        <polyline id="Fill-65" fill="#FFFFFF" points="79.241 13 79.241 7 80.012 7 80.012 12.263 82.609 12.263 82.609 13 79.241 13"></polyline>
        <polyline id="Fill-66" fill="#FFFFFF" points="79.241 13 79.341 13 79.341 7.1 79.912 7.1 79.912 12.363 82.509 12.363 82.509 12.9 79.241 12.9 79.241 13 79.341 13 79.241 13 79.241 13.1 82.709 13.1 82.709 12.163 80.112 12.163 80.112 6.9 79.141 6.9 79.141 13.1 79.241 13.1 79.241 13"></polyline>
        <polyline id="Fill-67" fill="#FFFFFF" points="87.085 7.737 84.353 7.737 84.353 9.64 86.816 9.64 86.816 10.36 84.353 10.36 84.353 12.263 87.085 12.263 87.085 13 83.582 13 83.582 7 87.085 7 87.085 7.737"></polyline>
        <polyline id="Fill-68" fill="#FFFFFF" points="87.085 7.737 87.085 7.637 84.253 7.637 84.253 9.74 86.716 9.74 86.716 10.26 84.253 10.26 84.253 12.363 86.985 12.363 86.985 12.9 83.682 12.9 83.682 7.1 86.985 7.1 86.985 7.737 87.085 7.737 87.085 7.637 87.085 7.737 87.185 7.737 87.185 6.9 83.482 6.9 83.482 13.1 87.185 13.1 87.185 12.163 84.452 12.163 84.452 10.46 86.916 10.46 86.916 9.54 84.452 9.54 84.452 7.837 87.185 7.837 87.185 7.737 87.085 7.737"></polyline>
        <polyline id="Fill-69" fill="#FFFFFF" points="93.806 7.737 91.073 7.737 91.073 9.64 93.537 9.64 93.537 10.36 91.073 10.36 91.073 12.263 93.806 12.263 93.806 13 90.303 13 90.303 7 93.806 7 93.806 7.737"></polyline>
        <polyline id="Fill-70" fill="#FFFFFF" points="93.806 7.737 93.806 7.637 90.973 7.637 90.973 9.74 93.437 9.74 93.437 10.26 90.973 10.26 90.973 12.363 93.706 12.363 93.706 12.9 90.403 12.9 90.403 7.1 93.706 7.1 93.706 7.737 93.806 7.737 93.806 7.637 93.806 7.737 93.906 7.737 93.906 6.9 90.203 6.9 90.203 13.1 93.906 13.1 93.906 12.163 91.173 12.163 91.173 10.46 93.637 10.46 93.637 9.54 91.173 9.54 91.173 7.837 93.906 7.837 93.906 7.737 93.806 7.737"></polyline>
        <polyline id="Fill-71" fill="#FFFFFF" points="95.012 13 95.012 7 95.95 7 98.866 11.667 98.899 11.667 98.866 10.511 98.866 7 99.638 7 99.638 13 98.833 13 95.782 8.106 95.749 8.106 95.782 9.263 95.782 13 95.012 13"></polyline>
        <polyline id="Fill-72" fill="#FFFFFF" points="95.012 13 95.112 13 95.112 7.1 95.895 7.1 98.811 11.768 99.002 11.768 98.966 10.51 98.966 7.1 99.538 7.1 99.538 12.9 98.888 12.9 95.838 8.006 95.646 8.006 95.682 9.264 95.682 12.9 95.012 12.9 95.012 13 95.112 13 95.012 13 95.012 13.1 95.882 13.1 95.882 9.261 95.849 8.104 95.749 8.106 95.749 8.206 95.782 8.206 95.782 8.106 95.697 8.159 98.778 13.1 99.738 13.1 99.738 6.9 98.766 6.9 98.766 10.513 98.799 11.67 98.899 11.667 98.899 11.568 98.866 11.568 98.866 11.667 98.951 11.615 96.006 6.9 94.912 6.9 94.912 13.1 95.012 13.1 95.012 13"></polyline>
    </g>
</svg>