<?xml version="1.0" encoding="UTF-8"?>
<svg width="135px" height="40px" viewBox="0 0 135 40" version="1.1" xmlns="http://www.w3.org/2000/svg" xmlns:xlink="http://www.w3.org/1999/xlink">
    <title>logo-app-store</title>
    <g id="Page-1" stroke="none" stroke-width="1" fill="none" fill-rule="evenodd">
        <g id="logo-app-store" fill-rule="nonzero">
            <g id="Group">
                <g id="Path">
                    <path d="M123.901616,-0.00013 L10.726515,-0.00013 C10.3139775,-0.00013 9.90639,-0.00013 9.49494375,0.002 C9.150525,0.004 8.80885125,0.00981 8.461125,0.0147 C7.70570289,0.0226018036 6.95205728,0.0816762599 6.2067375,0.19141 C5.46246459,0.303532628 4.74150658,0.51491574 4.0682475,0.81841 C3.39581184,1.12447171 2.78138815,1.52216753 2.24726625,1.99707 C1.71034031,2.47063699 1.26277108,3.01801638 0.92176875,3.61816 C0.579825272,4.21710912 0.342720561,4.8589383 0.21864375,5.52148 C0.0933873088,6.18318491 0.0259856782,6.85252054 0.01704375,7.52348 C0.00660375,7.83008 0.00550125,8.1377 0,8.44434 L0,31.5586 C0.00550125,31.8691 0.00660375,32.1699 0.01704375,32.4805 C0.0259884203,33.1514262 0.093390052,33.8207284 0.21864375,34.4824 C0.342377947,35.145329 0.579496678,35.7875266 0.92176875,36.3867 C1.26261624,36.9849029 1.71024841,37.5300662 2.24726625,38.001 C2.77936293,38.478014 3.39418376,38.8759804 4.0682475,39.1797 C4.74150147,39.4840065 5.46238175,39.6966478 6.2067375,39.8105 C6.95218398,39.9193547 7.70575209,39.9784532 8.461125,39.9873 C8.80885125,39.9941 9.150525,39.998 9.49494375,39.998 C9.90637875,40 10.314,40 10.726515,40 L123.901616,40 C124.305941,40 124.716791,40 125.121116,39.998 C125.463904,39.998 125.815466,39.9941 126.158254,39.9873 C126.912199,39.9789237 127.664348,39.9198215 128.408254,39.8105 C129.155011,39.6958464 129.878476,39.4832614 130.554979,39.1797 C131.228435,38.8758046 131.842688,38.4778491 132.374329,38.001 C132.909961,37.5282218 133.358549,36.9834573 133.703629,36.3867 C134.043332,35.7870908 134.278194,35.1449445 134.400116,34.4824 C134.52557,33.8206376 134.595364,33.1514843 134.608916,32.4805 C134.613304,32.1699 134.613304,31.8691 134.613304,31.5586 C134.622079,31.1953 134.622079,30.834 134.622079,30.4648 L134.622079,9.53613 C134.622079,9.16992 134.622079,8.80664 134.613304,8.44434 C134.613304,8.1377 134.613304,7.83008 134.608916,7.52344 C134.595367,6.85242244 134.525573,6.18323567 134.400116,5.52144 C134.277854,4.8592816 134.043006,4.21750328 133.703629,3.61812 C133.009194,2.41519608 131.90802,1.4360254 130.554979,0.81832 C129.878473,0.51556738 129.154931,0.30424041 128.408254,0.19132 C127.664477,0.0811027831 126.912249,0.0220077649 126.158254,0.01456 C125.815466,0.00968 125.463904,0.00382 125.121116,0.00187 C124.716791,-0.00013 124.305941,-0.00013 123.901616,-0.00013 L123.901616,-0.00013 Z" fill="#A6A6A6"></path>
                    <path d="M9.50043375,39.125 C9.15766875,39.125 8.82318375,39.1211 8.4831075,39.1143 C7.77861199,39.1061407 7.07576307,39.051625 6.380325,38.9512 C5.73186409,38.8519282 5.10367977,38.6672645 4.5164925,38.4033 C3.93468942,38.1415227 3.40403824,37.7982729 2.9448675,37.3867 C2.47905037,36.9799753 2.09123633,36.508244 1.79679375,35.9902 C1.49910667,35.4687891 1.29308949,34.9098996 1.18591875,34.333 C1.07018365,33.7131149 1.00756617,33.0863132 0.99860625,32.458 C0.99147375,32.2471 0.98213625,31.5449 0.98213625,31.5449 L0.98213625,8.44434 C0.98213625,8.44434 0.99208125,7.75293 0.9986625,7.5498 C1.00724156,6.92248205 1.06949492,6.2966531 1.18488375,5.67773 C1.29225231,5.09925008 1.49842898,4.53874887 1.79627625,4.01563 C2.08963668,3.49794385 2.47529766,3.02586029 2.93830875,2.61768 C3.40079943,2.20562142 3.93314806,1.86060412 4.51594125,1.59521 C5.101779,1.3320936 5.72877613,1.14873255 6.37592625,1.05127 C7.07364825,0.949836139 7.77893719,0.894996084 8.485875,0.88721 L9.500985,0.875 L125.115604,0.875 L126.142841,0.8877 C126.843349,0.895099198 127.542231,0.949450006 128.233541,1.05029 C128.887243,1.14897507 129.520774,1.33361553 130.113304,1.59814 C131.28085,2.13298605 132.230859,2.97916295 132.830179,4.01807 C133.123272,4.53757756 133.326268,5.09350676 133.432279,5.66699 C133.549042,6.29099138 133.61439,6.92173834 133.627804,7.5542 C133.631066,7.8374 133.631066,8.1416 133.631066,8.44434 C133.639954,8.81934 133.639954,9.17627 133.639954,9.53613 L133.639954,30.4648 C133.639954,30.8281 133.639954,31.1826 133.631066,31.54 C133.631066,31.8652 133.631066,32.1631 133.626679,32.4697 C133.613556,33.0908757 133.549296,33.7103642 133.434416,34.3232 C133.329442,34.9042612 133.124547,35.4675131 132.826916,35.9932 C132.530392,36.5056211 132.144805,36.9732662 131.684366,37.3789 C131.224782,37.7926846 130.693195,38.1379427 130.110041,38.4014 C129.519153,38.6673937 128.886554,38.8527403 128.233541,38.9512 C127.538156,39.052161 126.835239,39.1066802 126.130691,39.1143 C125.801179,39.1211 125.456141,39.125 125.121116,39.125 L123.901616,39.127 L9.50043375,39.125 Z" fill="#000000"></path>
                </g>
                <g id="_Group_" transform="translate(9.000000, 8.000000)" fill="#FFFFFF">
                    <g id="_Group_3">
                        <path d="M15.76888,12.30068 C15.790737,10.6042091 16.6801229,9.03718611 18.12544,8.14862 C17.2095126,6.84051277 15.730392,6.04087835 14.13428,5.99094 C12.45504,5.81468 10.82709,6.99577 9.97138,6.99577 C9.09911,6.99577 7.78161,6.00844 6.36288,6.03763 C4.49620126,6.09793842 2.79813717,7.13352548 1.88996,8.7655 C-0.04404,12.11392 1.39855,17.03497 3.25116,19.74158 C4.17806,21.06693 5.26134,22.54738 6.67879,22.49488 C8.06585,22.43735 8.58389,21.6104 10.25819,21.6104 C11.91695,21.6104 12.40298,22.49488 13.84919,22.4615 C15.33757,22.43734 16.27532,21.13026 17.1697,19.79236 C17.8356761,18.8479997 18.3481437,17.8042759 18.68812,16.69985 C16.9203766,15.9521813 15.7709432,14.2200343 15.76888,12.30068 L15.76888,12.30068 Z" id="_Path_"></path>
                        <path d="M13.03725,4.21089 C13.8487766,3.23668191 14.248585,1.98450245 14.15177,0.72027 C12.9119378,0.850490487 11.7666802,1.44304968 10.94419,2.37988 C10.1320187,3.30418903 9.72057463,4.51343268 9.80048,5.74127 C11.0569368,5.75420677 12.2499161,5.19015322 13.03725,4.21089 L13.03725,4.21089 Z" id="_Path_2"></path>
                    </g>
                    <g id="Group" transform="translate(25.000000, 9.000000)">
                        <path d="M8.30227,10.13965 L3.56887,10.13965 L2.43215,13.4961 L0.42727,13.4961 L4.91067,1.0781 L6.99367,1.0781 L11.47707,13.4961 L9.438,13.4961 L8.30227,10.13965 Z M4.0591,8.59082 L7.8111,8.59082 L5.96149,3.14355 L5.90973,3.14355 L4.0591,8.59082 Z" id="Shape"></path>
                        <path d="M21.15969,8.96973 C21.15969,11.78321 19.65383,13.59082 17.38137,13.59082 C16.2067553,13.6522646 15.1003324,13.0370307 14.53274,12.00682 L14.48974,12.00682 L14.48974,16.4912 L12.63134,16.4912 L12.63134,4.44238 L14.4302,4.44238 L14.4302,5.94824 L14.46438,5.94824 C15.0571883,4.92448792 16.1648043,4.30951884 17.34719,4.34765 C19.645,4.34766 21.15969,6.16406 21.15969,8.96973 Z M19.24953,8.96973 C19.24953,7.13673 18.30226,5.93164 16.85695,5.93164 C15.43703,5.93164 14.48195,7.16211 14.48195,8.96973 C14.48195,10.79395 15.43703,12.01563 16.85695,12.01563 C18.30227,12.01563 19.24953,10.81934 19.24953,8.96973 Z" id="Shape"></path>
                        <path d="M31.12453,8.96973 C31.12453,11.78321 29.61867,13.59082 27.34621,13.59082 C26.1715953,13.6522646 25.0651724,13.0370307 24.49758,12.00682 L24.45458,12.00682 L24.45458,16.4912 L22.59618,16.4912 L22.59618,4.44238 L24.395,4.44238 L24.395,5.94824 L24.42918,5.94824 C25.0219926,4.92448854 26.1296128,4.30952307 27.312,4.34766 C29.60988,4.34766 31.12453,6.16406 31.12453,8.96973 Z M29.21438,8.96973 C29.21438,7.13673 28.2671,5.93164 26.82179,5.93164 C25.40187,5.93164 24.44679,7.16211 24.44679,8.96973 C24.44679,10.79395 25.40187,12.01563 26.82179,12.01563 C28.26711,12.01563 29.21438,10.81934 29.21438,8.96973 L29.21438,8.96973 Z" id="Shape"></path>
                        <path d="M37.71047,10.03613 C37.84817,11.26758 39.04447,12.07613 40.67922,12.07613 C42.24563,12.07613 43.37258,11.26754 43.37258,10.15718 C43.37258,9.19331 42.69289,8.61618 41.08352,8.22066 L39.47415,7.83296 C37.19388,7.28218 36.13528,6.21577 36.13528,4.4853 C36.13528,2.34272 38.00247,0.87104 40.65383,0.87104 C43.27783,0.87104 45.07668,2.34272 45.13723,4.4853 L43.26123,4.4853 C43.14893,3.24604 42.12451,2.498 40.62744,2.498 C39.13037,2.498 38.10596,3.25484 38.10596,4.3564 C38.10596,5.23433 38.76026,5.75093 40.36084,6.1464 L41.729,6.48234 C44.27685,7.08488 45.33545,8.10834 45.33545,9.92472 C45.33545,12.24796 43.48486,13.70304 40.5415,13.70304 C37.78759,13.70304 35.92822,12.28214 35.8081,10.03604 L37.71047,10.03613 Z" id="Path"></path>
                        <path d="M49.34621,2.2998 L49.34621,4.44238 L51.06789,4.44238 L51.06789,5.91406 L49.34621,5.91406 L49.34621,10.90527 C49.34621,11.68066 49.69094,12.04199 50.44777,12.04199 C50.6521614,12.0384259 50.8562221,12.0240726 51.0591,11.99899 L51.0591,13.46188 C50.7188283,13.5254596 50.3729708,13.5542545 50.02687,13.54782 C48.19387,13.54782 47.47902,12.85934 47.47902,11.10348 L47.47902,5.91406 L46.16262,5.91406 L46.16262,4.44238 L47.479,4.44238 L47.479,2.2998 L49.34621,2.2998 Z" id="Path"></path>
                        <path d="M52.065,8.96973 C52.065,6.1211 53.74273,4.33106 56.35895,4.33106 C58.98395,4.33106 60.65387,6.12106 60.65387,8.96973 C60.65387,11.82618 58.99274,13.6084 56.35895,13.6084 C53.72609,13.6084 52.065,11.82617 52.065,8.96973 Z M58.76031,8.96973 C58.76031,7.01563 57.8648,5.86231 56.35894,5.86231 C54.85308,5.86231 53.95855,7.02442 53.95855,8.96973 C53.95855,10.93164 54.85308,12.07618 56.35894,12.07618 C57.8648,12.07618 58.76031,10.93164 58.76031,8.96973 L58.76031,8.96973 Z" id="Shape"></path>
                        <path d="M62.18605,4.44238 L63.95852,4.44238 L63.95852,5.98338 L64.00152,5.98338 C64.248696,4.99136841 65.1576526,4.30863156 66.17925,4.34764 C66.393414,4.34689223 66.6069872,4.37015075 66.81597,4.41698 L66.81597,6.15526 C66.545601,6.07264332 66.2635596,6.03471129 65.98097,6.04296 C65.4346182,6.02079544 64.9058709,6.23853473 64.5335615,6.63900597 C64.161252,7.03947722 63.9825766,7.58267074 64.04445,8.12596 L64.04445,13.49608 L62.18605,13.49608 L62.18605,4.44238 Z" id="Path"></path>
                        <path d="M75.3843,10.83691 C75.1343,12.48046 73.53371,13.60839 71.48586,13.60839 C68.85207,13.60839 67.21731,11.84374 67.21731,9.01269 C67.21731,6.17285 68.86086,4.33105 71.40774,4.33105 C73.91262,4.33105 75.48782,6.05175 75.48782,8.79687 L75.48782,9.43359 L69.09329,9.43359 L69.09329,9.54589 C69.0335874,10.2199216 69.2663316,10.8871194 69.7323199,11.3777699 C70.1983083,11.8684204 70.8526275,12.1352333 71.52884,12.11034 C72.4306823,12.1948396 73.2809431,11.6769777 73.61966,10.8369 L75.3843,10.83691 Z M69.1020624,8.13477 L73.62844,8.13477 C73.6621655,7.52909749 73.4416965,6.93682308 73.0201501,6.50063155 C72.5986036,6.06444001 72.0142008,5.82388041 71.40774,5.83691 C70.7964818,5.83326223 70.2090907,6.07393463 69.7761255,6.50543324 C69.3431603,6.93693186 69.1004963,7.52350292 69.1020624,8.13477 L69.1020624,8.13477 Z" id="Shape"></path>
                    </g>
                </g>
            </g>
            <g id="Group" transform="translate(35.000000, 8.000000)" fill="#FFFFFF">
                <path d="M0.42775,3.71631 C0.42775,1.78125 1.45705,0.58594 3.11525,0.58594 C4.354453,0.524565194 5.4336029,1.4238546 5.5967,2.65381 L4.67385,2.65381 C4.51405063,1.92829039 3.85759927,1.42135377 3.11525,1.4502 C2.04396,1.4502 1.37404,2.32276 1.37404,3.71631 C1.37404,5.10596 2.04396,5.97803 3.11916,5.97803 C3.83396906,6.03152743 4.48618319,5.5702257 4.67385,4.87842 L5.5967,4.87842 C5.41001122,6.0793506 4.33100022,6.93464954 3.11916,6.84229 C1.461,6.84229 0.42775,5.64746 0.42775,3.71631 Z" id="Path"></path>
                <path d="M6.61037,4.44434 C6.53315713,3.63722505 6.92017366,2.85611193 7.60910593,2.42859737 C8.29803819,2.0010828 9.16977181,2.0010828 9.85870407,2.42859737 C10.5476363,2.85611193 10.9346529,3.63722505 10.85744,4.44434 C10.9361219,5.25232226 10.5494587,6.03495038 9.85991554,6.4633853 C9.17037243,6.89182022 8.29743757,6.89182022 7.60789446,6.4633853 C6.91835134,6.03495038 6.53168806,5.25232226 6.61037,4.44434 Z M9.94338,4.44434 C9.94338,3.46827 9.50489,2.89747 8.73537,2.89747 C7.96291,2.89747 7.52837,3.46827 7.52837,4.44435 C7.52837,5.42824 7.96294,5.99464 8.73537,5.99464 C9.5049,5.99464 9.94338,5.42432 9.94338,4.44434 L9.94338,4.44434 Z" id="Shape"></path>
                <path d="M12.04982,2.19482 L12.90529,2.19482 L12.90529,2.91015 L12.9717,2.91015 C13.2026349,2.38347794 13.7422629,2.06130747 14.31545,2.1079 C14.7592668,2.07453177 15.1941759,2.2447899 15.4973808,2.57060207 C15.8005857,2.89641424 15.9391831,3.34242376 15.87404,3.7827 L15.87404,6.6977 L14.98537,6.6977 L14.98537,4.00586 C14.98537,3.28223 14.67092,2.92236 14.01369,2.92236 C13.7126558,2.90833912 13.4205102,3.02648257 13.2138446,3.24581678 C13.007179,3.465151 12.906605,3.76380101 12.93849,4.06347 L12.93849,6.69775 L12.04982,6.69775 L12.04982,2.19482 Z" id="Path"></path>
                <path d="M18.89455,2.10791 C19.90725,2.10791 20.56935,2.5791 20.65627,3.37305 L19.80373,3.37305 C19.72173,3.04248 19.39846,2.83155 18.89455,2.83155 C18.39846,2.83155 18.02155,3.0669 18.02155,3.41846 C18.02155,3.68746 18.24909,3.85694 18.73737,3.96875 L19.48537,4.14209 C20.34182,4.34082 20.74318,4.70898 20.74318,5.37061 C20.74318,6.21827 19.95318,6.78467 18.87795,6.78467 C17.80666,6.78467 17.10842,6.30078 17.02932,5.50293 L17.919,5.50293 C18.076782,5.89376623 18.4814472,6.12595019 18.89849,6.06493 C19.4522,6.06493 19.84576,5.81693 19.84576,5.45702 C19.84576,5.18847 19.63482,5.01464 19.18365,4.90722 L18.39849,4.72509 C17.54204,4.52245 17.14556,4.13818 17.14556,3.46825 C17.14553,2.66992 17.877,2.10791 18.89455,2.10791 Z" id="Path"></path>
                <path d="M21.86525,1.44189 L22.90334,0.01953 L23.94534,0.01953 L22.78322,1.44189 L21.86525,1.44189 Z M21.95705,2.19482 L22.84182,2.19482 L22.84182,6.69775 L21.95705,6.69775 L21.95705,2.19482 Z" id="Shape"></path>
                <path d="M24.22561,7.14844 L25.13479,7.14844 C25.20999,7.4751 25.58596,7.68604 26.18557,7.68604 C26.9258,7.68604 27.36428,7.33448 27.36428,6.73926 L27.36428,5.875 L27.29787,5.875 C27.0136547,6.36829156 26.4767843,6.66049601 25.90822,6.63135 C24.75881,6.63135 24.04787,5.74268 24.04787,4.39453 C24.04787,3.02153 24.76662,2.12012 25.91701,2.12012 C26.49967,2.09983016 27.0450445,2.40604072 27.33107,2.91407 L27.40138,2.91407 L27.40138,2.19483 L28.25294,2.19483 L28.25294,6.73483 C28.25294,7.76462 27.4463,8.41794 26.17286,8.41794 C25.04787,8.41794 24.32033,7.91357 24.22561,7.14844 Z M27.38088,4.39014 C27.38088,3.49314 26.91701,2.91846 26.16018,2.91846 C25.39553,2.91846 24.96584,3.49317 24.96584,4.39014 C24.96584,5.2876 25.39553,5.86231 26.16018,5.86231 C26.9219,5.86231 27.38088,5.292 27.38088,4.39014 L27.38088,4.39014 Z" id="Shape"></path>
                <path d="M33.46535,6.69775 L32.6089,6.69775 L32.6089,5.98242 L32.53859,5.98242 C32.3051182,6.51479426 31.7571095,6.83797577 31.17824,6.78467 C30.7371077,6.81597931 30.3054977,6.64600204 30.0041769,6.32229884 C29.7028561,5.99859564 29.564187,5.5559328 29.62697,5.11817 L29.62697,2.19482 L30.51711,2.19482 L30.51711,4.88671 C30.51711,5.61425 30.81011,5.96191 31.4634,5.96191 C31.7701755,5.9910217 32.0737149,5.88019759 32.2895653,5.66027195 C32.5054158,5.44034631 32.6105438,5.13478741 32.5757,4.82861 L32.5757,2.19482 L33.46535,2.19482 L33.46535,6.69775 Z" id="Path"></path>
                <path d="M38.689,5.48193 C38.439807,6.33130948 37.6178489,6.88010304 36.73783,6.78466 C36.1373919,6.80051066 35.5603375,6.55162983 35.1597739,6.10405194 C34.7592104,5.65647405 34.5756332,5.05544753 34.65775,4.46044 C34.5778174,3.86378048 34.7607082,3.26179373 35.1590408,2.81043696 C35.5573734,2.35908018 36.131952,2.10276675 36.73392,2.1079 C37.98685,2.1079 38.74271,2.9639 38.74271,4.3779 L38.74271,4.688 L35.563,4.688 L35.563,4.7378 C35.534862,5.07194014 35.6489807,5.40244775 35.8772908,5.6480407 C36.1056009,5.89363365 36.4269179,6.03152392 36.76222,6.0278 C37.1969919,6.07999468 37.6202125,5.86433304 37.83351,5.4819 L38.689,5.48193 Z M35.563,4.03076 L37.83741,4.03076 C37.8600629,3.72516044 37.7526085,3.42420507 37.5415269,3.20205909 C37.3304454,2.97991311 37.0353675,2.85723623 36.72901,2.86426 C36.4184986,2.86035347 36.1195693,2.9820134 35.9000333,3.20164165 C35.6804973,3.42126989 35.558963,3.72025022 35.563,4.03076 L35.563,4.03076 Z" id="Shape"></path>
                <polygon id="Path" points="39.97707 0.437 40.86574 0.437 40.86574 6.69774 39.97707 6.69774"></polygon>
                <path d="M42.10109,4.44434 C42.0238771,3.63722505 42.4108937,2.85611193 43.0998259,2.42859737 C43.7887582,2.0010828 44.6604918,2.0010828 45.3494241,2.42859737 C46.0383563,2.85611193 46.4253729,3.63722505 46.34816,4.44434 C46.4268419,5.25232226 46.0401787,6.03495038 45.3506355,6.4633853 C44.6610924,6.89182022 43.7881576,6.89182022 43.0986145,6.4633853 C42.4090713,6.03495038 42.0224081,5.25232226 42.10109,4.44434 Z M45.4341,4.44434 C45.4341,3.46827 44.99561,2.89747 44.22609,2.89747 C43.45363,2.89747 43.01909,3.46827 43.01909,4.44435 C43.01909,5.42824 43.45366,5.99464 44.22609,5.99464 C44.99563,5.99464 45.4341,5.42432 45.4341,4.44434 L45.4341,4.44434 Z" id="Shape"></path>
                <path d="M53.79152,5.48193 C53.542327,6.33130948 52.7203689,6.88010304 51.84035,6.78466 C51.2399119,6.80051066 50.6628575,6.55162983 50.2622939,6.10405194 C49.8617304,5.65647405 49.6781532,5.05544753 49.76027,4.46044 C49.6803374,3.86378048 49.8632282,3.26179373 50.2615608,2.81043696 C50.6598934,2.35908018 51.234472,2.10276675 51.83644,2.1079 C53.08937,2.1079 53.84523,2.9639 53.84523,4.3779 L53.84523,4.688 L50.66555,4.688 L50.66555,4.7378 C50.637412,5.07194014 50.7515307,5.40244775 50.9798408,5.6480407 C51.2081509,5.89363365 51.5294679,6.03152392 51.86477,6.0278 C52.2995419,6.07999468 52.7227625,5.86433304 52.93606,5.4819 L53.79152,5.48193 Z M50.66552,4.03076 L52.94,4.03076 C52.9626529,3.72516044 52.8551985,3.42420507 52.6441169,3.20205909 C52.4330354,2.97991311 52.1379575,2.85723623 51.8316,2.86426 C51.5210817,2.8603426 51.222142,2.98199772 51.0025973,3.20162717 C50.7830526,3.42125663 50.6615128,3.7202432 50.66555,4.03076 L50.66552,4.03076 Z" id="Shape"></path>
                <path d="M55.03859,2.19482 L55.89406,2.19482 L55.89406,2.91015 L55.96047,2.91015 C56.1914049,2.38347794 56.7310329,2.06130747 57.30422,2.1079 C57.7480368,2.07453177 58.1829459,2.2447899 58.4861508,2.57060207 C58.7893557,2.89641424 58.9279531,3.34242376 58.86281,3.7827 L58.86281,6.6977 L57.97414,6.6977 L57.97414,4.00586 C57.97414,3.28223 57.65969,2.92236 57.00246,2.92236 C56.7014258,2.90833912 56.4092802,3.02648257 56.2026146,3.24581678 C55.995949,3.465151 55.895375,3.76380101 55.92726,4.06347 L55.92726,6.69775 L55.03859,6.69775 L55.03859,2.19482 Z" id="Path"></path>
                <path d="M66.48781,5.48193 C66.238617,6.33130948 65.4166589,6.88010304 64.53664,6.78466 C63.9362019,6.80051066 63.3591475,6.55162983 62.9585839,6.10405194 C62.5580204,5.65647405 62.3744432,5.05544753 62.45656,4.46044 C62.3766274,3.86378048 62.5595182,3.26179373 62.9578508,2.81043696 C63.3561834,2.35908018 63.930762,2.10276675 64.53273,2.1079 C65.78566,2.1079 66.54152,2.9639 66.54152,4.3779 L66.54152,4.688 L63.36184,4.688 L63.36184,4.7378 C63.333702,5.07194014 63.4478207,5.40244775 63.6761308,5.6480407 C63.9044409,5.89363365 64.2257579,6.03152392 64.56106,6.0278 C64.9958319,6.07999468 65.4190525,5.86433304 65.63235,5.4819 L66.48781,5.48193 Z M63.36181,4.03076 L65.63622,4.03076 C65.6588729,3.72516044 65.5514185,3.42420507 65.3403369,3.20205909 C65.1292554,2.97991311 64.8341775,2.85723623 64.52782,2.86426 C64.2173137,2.86036163 63.9183923,2.98202516 63.6988629,3.2016525 C63.4793334,3.42127985 63.3578032,3.72025549 63.36184,4.03076 L63.36181,4.03076 Z" id="Shape"></path>
                <polygon id="Path" points="67.7759 0.437 68.66457 0.437 68.66457 6.69774 67.7759 6.69774"></polygon>
            </g>
        </g>
    </g>
</svg>