<?xml version="1.0" encoding="UTF-8" standalone="no"?><!DOCTYPE svg PUBLIC "-//W3C//DTD SVG 1.1//EN" "http://www.w3.org/Graphics/SVG/1.1/DTD/svg11.dtd"><svg width="100%" height="100%" viewBox="0 0 251 48" version="1.1" xmlns="http://www.w3.org/2000/svg" xmlns:xlink="http://www.w3.org/1999/xlink" xml:space="preserve" style="fill-rule:evenodd;clip-rule:evenodd;stroke-linejoin:round;stroke-miterlimit:1.41421;"><path d="M250.653,11.552c-1.003,-0.571 -2.228,-1.01 -3.706,-1.397c-1.484,-0.349 -3.184,-0.571 -5.061,-0.571c-2.178,0 -4.232,0.304 -6.109,0.918c-1.917,0.614 -3.615,1.484 -5.146,2.582c-1.521,1.088 -2.788,2.355 -3.836,3.845c-1.046,1.484 -1.832,3.098 -2.27,4.85c-0.346,1.269 -0.433,2.534 -0.217,3.847c0.217,1.309 0.874,2.529 1.877,3.757c1.043,1.18 2.614,2.273 4.665,3.278c1.133,0.484 1.964,0.961 2.532,1.355c0.61,0.439 1.001,0.831 1.13,1.31c0.179,0.439 0.179,0.965 0,1.529c-0.214,0.878 -0.737,1.574 -1.568,2.058c-0.832,0.434 -1.964,0.694 -3.398,0.694c-1.001,0 -2.009,-0.128 -3.015,-0.39c-1.048,-0.219 -1.957,-0.526 -2.835,-0.915c-0.869,-0.347 -1.569,-0.746 -2.091,-1.145l-4.143,8.31c0.7,0.484 1.526,0.873 2.572,1.27c1.005,0.347 2.141,0.611 3.403,0.828c1.309,0.217 2.614,0.31 4.015,0.31c3.092,0 5.885,-0.479 8.372,-1.403c2.487,-0.96 4.618,-2.317 6.283,-4.106c1.698,-1.794 2.876,-3.937 3.53,-6.512c0.436,-1.576 0.521,-3.011 0.259,-4.373c-0.216,-1.397 -0.829,-2.62 -1.829,-3.765c-1.001,-1.132 -2.443,-2.18 -4.359,-3.053c-1.18,-0.567 -2.097,-1.048 -2.754,-1.487c-0.605,-0.437 -1.048,-0.874 -1.259,-1.268c-0.18,-0.436 -0.224,-0.87 -0.045,-1.397c0.216,-0.831 0.699,-1.487 1.479,-1.968c0.786,-0.524 1.837,-0.744 3.099,-0.784c0.874,0 1.7,0.13 2.484,0.3c0.829,0.184 1.529,0.399 2.183,0.703c0.653,0.262 1.178,0.569 1.658,0.829l4.1,-8.039Zm-36.664,26.268c-1.438,0.434 -2.882,0.781 -4.451,1.048c-1.526,0.262 -3.091,0.392 -4.754,0.439c-1.611,0 -3.055,-0.264 -4.23,-0.706c-1.175,-0.479 -2.051,-1.172 -2.661,-2.138c-0.518,-0.963 -0.655,-2.138 -0.388,-3.62l20.796,0c0.311,-0.616 0.57,-1.362 0.829,-2.233c0.311,-0.833 0.525,-1.709 0.789,-2.622c0.834,-3.108 1.178,-5.818 1.043,-8.13c-0.127,-2.321 -0.649,-4.244 -1.568,-5.773c-0.958,-1.53 -2.223,-2.623 -3.836,-3.411c-1.651,-0.738 -3.58,-1.09 -5.756,-1.09c-2.225,0 -4.321,0.352 -6.28,1.05c-2.007,0.656 -3.837,1.612 -5.537,2.882c-1.705,1.225 -3.273,2.662 -4.668,4.326c-1.359,1.664 -2.571,3.453 -3.537,5.423c-0.866,1.662 -1.571,3.411 -2.094,5.2c0.09,0.045 0.224,0.132 0.349,0.174c0.699,0.482 1.357,1.048 1.832,1.747c0.525,0.656 0.961,1.399 1.225,2.275c0.306,0.833 0.478,1.749 0.525,2.709c0.043,0.968 0,1.969 -0.179,3.019l-0.04,0.04c-0.172,1.05 -0.478,2.013 -0.824,2.929c-0.351,0.871 -0.794,1.707 -1.314,2.45c0.607,0.696 1.314,1.307 2.138,1.836c2.31,1.485 5.41,2.231 9.293,2.231c1.434,0 2.918,-0.093 4.404,-0.222c1.431,-0.133 2.875,-0.352 4.269,-0.657c1.437,-0.309 2.748,-0.698 4.016,-1.135l0.609,-8.041Zm-34.282,8.738c0.834,0 1.573,-0.085 2.312,-0.259c0.7,-0.175 1.394,-0.437 2.047,-0.786c0.654,-0.397 1.269,-0.786 1.837,-1.268c0.528,-0.484 1.045,-1.092 1.483,-1.704c0.436,-0.653 0.824,-1.357 1.133,-2.1c0.304,-0.784 0.525,-1.572 0.697,-2.448c0.177,-0.915 0.217,-1.746 0.177,-2.492c-0.045,-0.694 -0.177,-1.395 -0.349,-1.966c-0.221,-0.611 -0.525,-1.135 -0.876,-1.577c-0.309,-0.434 -0.737,-0.828 -1.22,-1.135c-0.478,-0.302 -1.045,-0.561 -1.658,-0.741c-0.654,-0.175 -1.346,-0.262 -2.091,-0.262c-0.742,0 -1.446,0.087 -2.138,0.307c-0.7,0.172 -1.399,0.437 -2.051,0.786c-0.653,0.392 -1.265,0.833 -1.83,1.312c-0.568,0.524 -1.093,1.09 -1.573,1.752c-0.476,0.608 -0.874,1.302 -1.173,2.045c-0.348,0.749 -0.568,1.535 -0.742,2.368c-0.132,0.871 -0.177,1.659 -0.132,2.4c0,0.701 0.132,1.355 0.349,1.971c0.177,0.611 0.48,1.138 0.786,1.567c0.349,0.486 0.782,0.883 1.263,1.185c0.48,0.349 1.003,0.611 1.615,0.786c0.655,0.174 1.349,0.259 2.134,0.259Zm30.489,-21.631c0.214,-0.831 0.388,-1.706 0.438,-2.535c0.087,-0.873 0.037,-1.664 -0.179,-2.407c-0.172,-0.741 -0.521,-1.312 -1.044,-1.789c-0.527,-0.437 -1.309,-0.659 -2.31,-0.701c-0.961,0.042 -1.879,0.264 -2.711,0.748c-0.781,0.474 -1.523,1.088 -2.178,1.832c-0.615,0.743 -1.175,1.526 -1.611,2.402c-0.48,0.828 -0.831,1.662 -1.09,2.45l10.685,0Z" style="fill:#f8941d;"/><path d="M139.687,9.761c1.175,-0.222 2.4,-0.307 3.655,-0.307c1.317,0 2.489,0.13 3.627,0.352c1.135,0.212 2.178,0.561 3.139,1.043c0.963,0.481 1.787,1.097 2.576,1.744c0.74,0.708 1.394,1.492 1.92,2.367c0.562,0.873 0.998,1.839 1.304,2.884c0.306,1.003 0.52,2.101 0.613,3.276c0.087,1.135 0.087,2.363 -0.05,3.635c-0.122,1.262 -0.389,2.617 -0.735,3.974c-0.346,1.355 -0.741,2.662 -1.224,3.845c-0.434,1.222 -1.001,2.315 -1.566,3.408c-0.618,1.052 -1.228,2.013 -1.92,2.931c-0.652,0.913 -1.359,1.746 -2.138,2.485c-0.739,0.746 -1.528,1.447 -2.313,2.066c-0.826,0.611 -1.658,1.175 -2.484,1.651c-0.871,0.484 -1.705,0.876 -2.572,1.225c-0.873,0.397 -1.745,0.656 -2.616,0.873c-0.881,0.265 -1.753,0.397 -2.577,0.529c-0.873,0.133 -1.7,0.172 -2.531,0.172c-1.22,0 -2.395,-0.132 -3.488,-0.349c-1.133,-0.217 -2.136,-0.521 -3.094,-0.96l-0.043,0c-0.958,-0.437 -1.837,-1.006 -2.618,-1.659c-0.74,-0.657 -1.444,-1.397 -2.009,-2.278c-0.608,-0.826 -1.088,-1.791 -1.434,-2.842c-0.351,-1.003 -0.57,-2.138 -0.697,-3.318c-0.09,-1.182 -0.09,-2.45 0.042,-3.802c0.129,-1.315 0.344,-2.712 0.734,-4.154c0.394,-1.527 0.837,-2.926 1.399,-4.281c0.568,-1.315 1.225,-2.58 1.965,-3.805c0.699,-1.182 1.481,-2.27 2.355,-3.28c0.871,-0.953 1.792,-1.872 2.745,-2.712c1.006,-0.829 2.054,-1.565 3.095,-2.183c1.098,-0.612 2.185,-1.135 3.358,-1.57c1.182,-0.441 2.357,-0.745 3.582,-0.96Zm-62.806,0c1.175,-0.222 2.4,-0.307 3.662,-0.307c1.309,0 2.484,0.13 3.622,0.352c1.13,0.212 2.178,0.561 3.134,1.043c0.961,0.481 1.795,1.097 2.532,1.744c0.787,0.708 1.444,1.492 1.964,2.367c0.57,0.873 1.003,1.839 1.307,2.884c0.309,1.003 0.525,2.101 0.61,3.276c0.092,1.135 0.092,2.363 -0.042,3.635c-0.13,1.262 -0.389,2.617 -0.74,3.974c-0.346,1.355 -0.744,2.662 -1.22,3.845c-0.483,1.222 -1.005,2.315 -1.57,3.408c-0.613,1.052 -1.22,2.013 -1.922,2.931c-0.652,0.913 -1.394,1.746 -2.136,2.485c-0.742,0.746 -1.521,1.447 -2.313,2.066c-0.826,0.611 -1.655,1.175 -2.487,1.651c-0.871,0.484 -1.698,0.876 -2.571,1.225c-0.874,0.397 -1.745,0.656 -2.614,0.873c-0.874,0.265 -1.745,0.397 -2.574,0.529c-0.874,0.133 -1.701,0.172 -2.532,0.172c-1.225,0 -2.397,-0.132 -3.49,-0.349c-1.128,-0.217 -2.181,-0.521 -3.097,-0.96l-0.042,0c-0.954,-0.437 -1.83,-1.006 -2.617,-1.659c-0.741,-0.657 -1.441,-1.397 -2.011,-2.278c-0.602,-0.826 -1.088,-1.791 -1.434,-2.842c-0.343,-1.003 -0.568,-2.138 -0.697,-3.318c-0.087,-1.182 -0.087,-2.45 0.042,-3.802c0.13,-1.315 0.349,-2.712 0.742,-4.154c0.391,-1.527 0.829,-2.926 1.399,-4.281c0.563,-1.315 1.218,-2.58 1.959,-3.805c0.7,-1.182 1.487,-2.27 2.358,-3.28c0.824,-0.953 1.787,-1.872 2.743,-2.712c1.003,-0.829 2.056,-1.565 3.099,-2.183c1.093,-0.612 2.181,-1.135 3.356,-1.57c1.18,-0.441 2.355,-0.745 3.58,-0.96Zm27.006,0.434l1.399,-5.418l0.169,-0.699l0.657,-0.18l9.766,-2.662l2.007,-0.571l-0.523,2.008l-1.917,7.522l7.628,0l-0.389,1.532l-1.705,6.731l-0.259,0.953l-7.588,0l-3.622,14.084c-0.219,0.96 -0.348,1.786 -0.395,2.449c0,0.564 0.047,0.961 0.176,1.263c0.087,0.222 0.264,0.394 0.438,0.481c0.304,0.133 0.695,0.22 1.178,0.22l0.042,0c0.304,0 0.568,0 0.784,-0.045c0.264,0 0.481,0 0.7,-0.042c0.219,-0.045 0.436,-0.045 0.655,-0.088c0.176,-0.045 0.39,-0.092 0.652,-0.132l1.877,-0.352l-0.438,1.839l-1.656,7.035l-0.176,0.614l-0.61,0.215c-0.391,0.177 -0.829,0.262 -1.35,0.396c-0.438,0.085 -1,0.173 -1.57,0.262c-0.61,0.085 -1.223,0.133 -1.83,0.172c-0.657,0.045 -1.354,0.045 -2.009,0.045c-0.916,0 -1.698,-0.045 -2.437,-0.174c-0.742,-0.132 -1.442,-0.305 -2.054,-0.569c-0.612,-0.217 -1.138,-0.526 -1.616,-0.873c-0.478,-0.35 -0.913,-0.744 -1.264,-1.225c-0.349,-0.434 -0.608,-0.911 -0.874,-1.355c-0.217,-0.479 -0.346,-1.003 -0.478,-1.527c-0.129,-0.526 -0.219,-1.05 -0.219,-1.532c-0.042,-0.486 -0.09,-1.007 -0.042,-1.529c0.042,-0.524 0.089,-1.008 0.132,-1.487c0.044,-0.436 0.129,-0.918 0.219,-1.355c0.089,-0.436 0.171,-0.875 0.259,-1.267c0.087,-0.434 0.171,-0.781 0.258,-1.093l3.667,-14.43l-4.493,0l0.398,-1.524l1.696,-6.771l0.224,-0.921l4.533,0Zm62.64,37.021l-11.687,0l0.391,-1.53l6.066,-23.778c0.301,-1.225 0.568,-2.228 0.74,-3.061c0.216,-0.828 0.44,-1.789 0.657,-2.754c0.129,-0.612 0.348,-1.49 0.562,-2.538c0.222,-1.09 0.396,-1.783 0.528,-2.4l0.214,-0.96l10.291,0l-0.256,1.444l-0.309,1.662c0.175,-0.18 0.391,-0.392 0.565,-0.529c0.655,-0.566 1.312,-1.045 1.967,-1.442c0.65,-0.392 1.307,-0.741 2.004,-1.05c0.697,-0.262 1.354,-0.474 1.967,-0.609c0.699,-0.175 1.346,-0.217 1.959,-0.217l0.657,0c0.214,0 0.388,0 0.565,0.042c0.217,0 0.396,0.043 0.565,0.043c0.179,0.047 0.354,0.084 0.483,0.132l1.222,0.264l-0.306,1.22l-2.22,8.745l-0.267,1.137l-1.14,-0.219c-0.124,-0.048 -0.301,-0.048 -0.43,-0.09c-0.18,0 -0.307,-0.045 -0.478,-0.045c-0.222,-0.042 -0.394,-0.042 -0.523,-0.042l-0.657,0c-0.61,0 -1.178,0.042 -1.788,0.222c-0.567,0.129 -1.132,0.307 -1.658,0.569c-0.523,0.299 -1.045,0.606 -1.526,1.047c-0.478,0.429 -0.916,0.916 -1.351,1.485c-0.436,0.566 -0.832,1.22 -1.18,1.971c-0.304,0.741 -0.605,1.571 -0.827,2.485l-4.575,17.878l-0.225,0.918Zm-155.002,-0.003l-11.511,0l0.391,-1.526l6.149,-24.168c0.303,-1.272 0.57,-2.188 0.739,-2.889c0.174,-0.741 0.396,-1.659 0.612,-2.662c0.135,-0.616 0.302,-1.444 0.526,-2.495c0.216,-0.96 0.388,-1.701 0.52,-2.317l0.222,-0.961l10.204,0l-0.217,1.397l-0.221,1.355c0.261,-0.212 0.609,-0.434 0.96,-0.701c0.436,-0.3 0.912,-0.606 1.4,-0.871c0.517,-0.259 1.043,-0.526 1.61,-0.741c0.525,-0.219 1.091,-0.439 1.7,-0.616c0.613,-0.175 1.22,-0.302 1.92,-0.394c0.657,-0.085 1.307,-0.127 2.006,-0.127c0.779,0 1.526,0.087 2.228,0.219c0.695,0.127 1.347,0.349 1.959,0.611c0.615,0.262 1.131,0.612 1.658,1.003c0.476,0.397 0.916,0.876 1.305,1.36c0.353,0.476 0.612,1 0.829,1.569c0.221,-0.214 0.44,-0.397 0.654,-0.569c0.7,-0.606 1.4,-1.135 2.094,-1.571c0.697,-0.479 1.399,-0.874 2.096,-1.18c0.697,-0.35 1.394,-0.612 2.136,-0.829c0.695,-0.222 1.394,-0.349 2.091,-0.486c0.7,-0.085 1.399,-0.127 2.094,-0.127c0.829,0 1.618,0.087 2.405,0.264c0.739,0.127 1.476,0.394 2.13,0.701c0.658,0.302 1.312,0.736 1.833,1.265c0.525,0.479 1.008,1.088 1.396,1.789c0.399,0.656 0.742,1.444 0.916,2.272c0.219,0.834 0.349,1.707 0.394,2.707c0.039,0.968 0,2.016 -0.175,3.196c-0.132,1.138 -0.348,2.315 -0.694,3.628l-5.325,20.979l-0.219,0.915l-11.514,0l0.394,-1.526l4.969,-19.54c0.221,-0.786 0.351,-1.529 0.44,-2.228c0.09,-0.654 0.127,-1.27 0.127,-1.839c0,-0.479 -0.037,-0.91 -0.172,-1.262c-0.087,-0.352 -0.216,-0.611 -0.395,-0.833l-0.04,0c-0.13,-0.175 -0.306,-0.305 -0.565,-0.394c-0.307,-0.128 -0.7,-0.18 -1.138,-0.217l0,0.037c-0.261,0 -0.525,0 -0.782,0.052c-0.266,0.045 -0.525,0.128 -0.789,0.217l-0.042,0.045c-0.262,0.085 -0.525,0.22 -0.824,0.392c-0.264,0.175 -0.57,0.349 -0.829,0.566l0,0.045c-0.264,0.217 -0.57,0.484 -0.789,0.791c-0.264,0.302 -0.523,0.651 -0.782,1.003c-0.221,0.387 -0.441,0.828 -0.612,1.267c-0.177,0.434 -0.349,0.966 -0.528,1.53l0.045,0l-5.36,20.979l-0.219,0.915l-11.516,0l0.393,-1.526l5.193,-20.413c0.174,-0.656 0.301,-1.268 0.389,-1.834c0.044,-0.566 0.087,-1.09 0.044,-1.574c0,-0.434 -0.044,-0.828 -0.174,-1.138c-0.085,-0.307 -0.221,-0.569 -0.396,-0.783c-0.174,-0.135 -0.348,-0.265 -0.605,-0.354c-0.306,-0.128 -0.657,-0.18 -1.092,-0.217l0,0.037c-0.262,0 -0.478,0 -0.742,0.052c-0.262,0.088 -0.568,0.173 -0.829,0.262c-0.301,0.133 -0.613,0.302 -0.914,0.482c-0.309,0.174 -0.612,0.389 -0.874,0.656c-0.306,0.257 -0.612,0.521 -0.873,0.828c-0.262,0.347 -0.521,0.701 -0.74,1.093l-0.045,0c-0.216,0.349 -0.435,0.783 -0.607,1.222c-0.174,0.437 -0.349,0.921 -0.483,1.445l-5.322,20.847l-0.217,0.915Zm131.866,-16.74c0.262,-0.696 0.481,-1.397 0.66,-2.138c0.169,-0.699 0.301,-1.357 0.388,-1.926l0,-0.04c0.127,-0.616 0.177,-1.227 0.22,-1.839c0.044,-0.611 0.044,-1.18 0,-1.746c-0.043,-0.529 -0.093,-1.053 -0.22,-1.489l0,-0.043c-0.087,-0.434 -0.266,-0.786 -0.435,-1.135c-0.177,-0.307 -0.351,-0.566 -0.613,-0.833c-0.216,-0.175 -0.48,-0.347 -0.786,-0.437c-0.344,-0.13 -0.697,-0.217 -1.178,-0.217c-0.393,0 -0.781,0.087 -1.177,0.18c-0.389,0.087 -0.742,0.214 -1.088,0.391c-0.396,0.173 -0.742,0.39 -1.095,0.657c-0.346,0.259 -0.692,0.523 -1.001,0.87c-0.304,0.31 -0.655,0.704 -0.914,1.093c-0.306,0.389 -0.612,0.788 -0.866,1.227c-0.266,0.477 -0.535,0.916 -0.752,1.395c-0.254,0.484 -0.475,0.963 -0.65,1.492c-0.214,0.474 -0.393,1 -0.57,1.524c-0.174,0.479 -0.301,1.006 -0.435,1.532c-0.172,0.739 -0.346,1.442 -0.433,2.141c-0.13,0.653 -0.172,1.312 -0.22,1.921c0,0.616 0,1.225 0.09,1.754c0.042,0.519 0.13,1.003 0.259,1.439c0.132,0.392 0.304,0.788 0.483,1.093c0.172,0.304 0.388,0.524 0.652,0.743c0.217,0.22 0.523,0.347 0.824,0.437c0.311,0.13 0.705,0.172 1.098,0.172l0.042,0c0.431,0 0.827,-0.042 1.22,-0.172l0.042,0c0.394,-0.13 0.785,-0.304 1.223,-0.524c0.435,-0.262 0.829,-0.566 1.22,-0.918c0.395,-0.397 0.786,-0.786 1.177,-1.267c0.349,-0.484 0.742,-1.003 1.09,-1.577c0.346,-0.564 0.658,-1.133 0.959,-1.789c0.261,-0.614 0.57,-1.265 0.786,-1.971Zm-62.808,0c0.266,-0.696 0.483,-1.397 0.662,-2.138c0.167,-0.699 0.304,-1.357 0.391,-1.926l0,-0.04c0.129,-0.616 0.174,-1.227 0.216,-1.839c0.043,-0.611 0.043,-1.18 0,-1.746c-0.042,-0.529 -0.087,-1.053 -0.216,-1.489l0,-0.043c-0.137,-0.434 -0.269,-0.786 -0.441,-1.135c-0.174,-0.307 -0.388,-0.566 -0.612,-0.833c-0.214,-0.175 -0.476,-0.347 -0.779,-0.437c-0.354,-0.13 -0.742,-0.217 -1.18,-0.217c-0.391,0 -0.787,0.087 -1.175,0.18c-0.394,0.087 -0.742,0.214 -1.088,0.391c-0.396,0.173 -0.742,0.39 -1.093,0.657c-0.349,0.259 -0.702,0.523 -1.006,0.87c-0.304,0.31 -0.655,0.704 -0.913,1.093c-0.304,0.389 -0.61,0.788 -0.872,1.227c-0.261,0.477 -0.528,0.916 -0.744,1.395c-0.259,0.484 -0.478,0.963 -0.655,1.492c-0.216,0.474 -0.393,1 -0.565,1.524c-0.174,0.479 -0.304,1.006 -0.436,1.532c-0.219,0.739 -0.348,1.442 -0.433,2.141c-0.134,0.653 -0.176,1.312 -0.224,1.921c0,0.616 0,1.225 0.09,1.754c0.042,0.519 0.134,1.003 0.256,1.439c0.135,0.392 0.311,0.788 0.488,1.093c0.169,0.304 0.391,0.524 0.65,0.743c0.216,0.22 0.483,0.347 0.829,0.437c0.309,0.13 0.704,0.172 1.093,0.172l0.042,0c0.433,0 0.827,-0.042 1.222,-0.172l0.043,0c0.393,-0.13 0.786,-0.304 1.222,-0.524c0.436,-0.262 0.824,-0.566 1.222,-0.918c0.389,-0.397 0.782,-0.786 1.178,-1.267c0.348,-0.484 0.742,-1.003 1.09,-1.577c0.346,-0.564 0.65,-1.133 0.959,-1.789c0.261,-0.614 0.525,-1.265 0.779,-1.971Z" style="fill:#fff;"/></svg>